<svg width="1977" height="512" viewBox="0 0 1977 512" fill="none" xmlns="http://www.w3.org/2000/svg">
<path d="M169.658 75.9982H75.4178V170.838H154.272V250.193H0V0H248.512V436.002H433.146V250.193H263.898V170.838H512V512H169.658V75.9982Z" fill="white"/>
<path d="M745.979 356.217H612V155.783H646.714V323.288H745.979V356.217Z" fill="white"/>
<path d="M855.964 360.512C800.02 360.512 771.618 320.425 771.618 256C771.618 191.575 800.02 151.488 855.964 151.488C911.621 151.488 940.023 191.575 940.023 256C940.023 320.425 911.621 360.512 855.964 360.512ZM855.964 328.442C899.858 328.442 905.309 281.197 905.309 256C905.309 230.803 899.858 183.558 855.964 183.558C812.069 183.558 806.332 230.803 806.332 256C806.332 281.197 812.069 328.442 855.964 328.442Z" fill="white"/>
<path d="M1027 356.217H992.289V155.783H1026.72L1080.94 286.065L1135.45 155.783H1169.59V356.217H1134.88V239.393L1091.84 337.891H1070.32L1027 239.393V356.217Z" fill="white"/>
<path d="M1330.76 251.132C1370.35 259.15 1377.81 281.484 1377.81 298.95C1377.81 356.217 1317.27 356.217 1295.75 356.217H1230.34V155.783H1293.46C1314.98 155.783 1376.66 155.783 1376.66 207.61C1376.66 224.217 1369.49 244.833 1330.76 251.132ZM1290.59 188.712H1265.06V235.67H1290.59C1316.98 235.67 1341.66 235.384 1341.66 212.477C1341.66 189.571 1313.54 188.712 1290.59 188.712ZM1265.06 323.288H1286.29C1327.03 323.288 1343.09 316.703 1343.09 296.946C1343.09 270.03 1314.69 266.881 1286.29 266.881H1265.06V323.288Z" fill="white"/>
<path d="M1591.21 356.217H1555.64L1540.72 314.698H1458.38L1443.46 356.217H1407.89L1482.19 155.783H1516.91L1591.21 356.217ZM1499.41 201.024L1469.86 282.915H1528.96L1499.41 201.024Z" fill="white"/>
<path d="M1732.75 270.317L1773.2 356.217H1734.76L1695.74 274.325H1661.32V356.217H1626.6V155.783H1697.18C1745.95 155.783 1772.92 170.959 1772.92 213.909C1772.92 245.978 1758.86 263.158 1732.75 270.317ZM1695.74 188.139H1661.32V241.97H1695.74C1725.29 241.97 1738.78 234.525 1738.78 215.054C1738.78 195.297 1724.43 188.139 1695.74 188.139Z" fill="white"/>
<path d="M1877.48 356.217H1820.39V155.783H1877.48C1937.73 155.783 1976.46 195.011 1976.46 256.573C1976.46 317.275 1937.73 356.217 1877.48 356.217ZM1855.1 188.712V323.288H1880.06C1918.22 323.288 1941.74 295.8 1941.74 256.573C1941.74 215.913 1917.07 188.712 1880.06 188.712H1855.1Z" fill="white"/>
</svg>
