<svg width="4668" height="1200" viewBox="0 0 4668 1200" fill="none" xmlns="http://www.w3.org/2000/svg">
<rect x="319.074" y="118" width="51.4723" height="51.4723" fill="#00B9F4"/>
<rect x="319.074" y="167.264" width="51.4723" height="51.4723" fill="#00B9F4"/>
<rect x="319.074" y="217.264" width="51.4723" height="51.4723" fill="#00B9F4"/>
<rect x="372.062" y="267.264" width="51.4723" height="51.4723" fill="#00B9F4"/>
<rect x="372.062" y="317.264" width="51.4723" height="51.4723" fill="#00B9F4"/>
<rect x="372.062" y="367.264" width="51.4723" height="51.4723" fill="#0DD8FD"/>
<rect x="425.05" y="417.264" width="51.4723" height="51.4723" fill="#0DCCFB"/>
<rect x="425.05" y="467.264" width="51.4723" height="51.4723" fill="#7BFBFF"/>
<rect x="478.038" y="517.264" width="51.4723" height="51.4723" fill="#0DCCFB"/>
<rect x="478.038" y="567.264" width="51.4723" height="51.4723" fill="#7BFBFF"/>
<rect x="531.025" y="617.264" width="51.4723" height="51.4723" fill="#0DCCFB"/>
<rect x="531.025" y="717.264" width="51.4723" height="51.4723" fill="#35E5FC"/>
<rect x="531.025" y="817.264" width="51.4723" height="51.4723" fill="#35E5FC"/>
<rect x="531.025" y="667.264" width="51.4723" height="51.4723" fill="#7BFBFF"/>
<rect x="319.074" y="267.264" width="51.4723" height="51.4723" fill="#00B9F4"/>
<rect x="319.074" y="317.264" width="51.4723" height="51.4723" fill="#00B9F4"/>
<rect x="319.074" y="367.264" width="51.4723" height="51.4723" fill="#00B9F4"/>
<rect x="319.074" y="417.264" width="51.4723" height="51.4723" fill="#00B9F4"/>
<rect x="319.074" y="467.264" width="51.4723" height="51.4723" fill="#00B9F4"/>
<rect x="319.074" y="517.264" width="51.4723" height="51.4723" fill="#00B9F4"/>
<rect x="319.074" y="567.264" width="51.4723" height="51.4723" fill="#00B9F4"/>
<rect x="319.074" y="367.264" width="51.4723" height="51.4723" fill="#00B9F4"/>
<rect x="319.074" y="417.264" width="51.4723" height="51.4723" fill="#00B9F4"/>
<rect x="319.074" y="467.264" width="51.4723" height="51.4723" fill="#00B9F4"/>
<rect x="319.074" y="517.264" width="51.4723" height="51.4723" fill="#00B9F4"/>
<rect x="319.074" y="567.264" width="51.4723" height="51.4723" fill="#00B9F4"/>
<rect x="372.062" y="417.264" width="51.4723" height="51.4723" fill="#00B9F4"/>
<rect x="372.062" y="467.264" width="51.4723" height="51.4723" fill="#00B9F4"/>
<rect x="372.062" y="517.264" width="51.4723" height="51.4723" fill="#00B9F4"/>
<rect x="372.062" y="567.264" width="51.4723" height="51.4723" fill="#00B9F4"/>
<rect x="372.062" y="417.264" width="51.4723" height="51.4723" fill="#00B9F4"/>
<rect x="372.062" y="467.264" width="51.4723" height="51.4723" fill="#00B9F4"/>
<rect x="372.062" y="517.264" width="51.4723" height="51.4723" fill="#00B9F4"/>
<rect x="372.062" y="567.264" width="51.4723" height="51.4723" fill="#00B9F4"/>
<rect x="319.074" y="617.264" width="51.4723" height="51.4723" fill="#00B9F4"/>
<rect x="319.074" y="667.264" width="51.4723" height="51.4723" fill="#00B9F4"/>
<rect x="319.074" y="717.264" width="51.4723" height="51.4723" fill="#00B9F4"/>
<rect x="319.074" y="767.264" width="51.4723" height="51.4723" fill="#00B9F4"/>
<rect x="319.074" y="617.264" width="51.4723" height="51.4723" fill="#00B9F4"/>
<rect x="319.074" y="667.264" width="51.4723" height="51.4723" fill="#00B9F4"/>
<rect x="319.074" y="717.264" width="51.4723" height="51.4723" fill="#00B9F4"/>
<rect x="319.074" y="767.264" width="51.4723" height="51.4723" fill="#00B9F4"/>
<rect x="372.062" y="617.264" width="51.4723" height="51.4723" fill="#00B9F4"/>
<rect x="372.062" y="667.264" width="51.4723" height="51.4723" fill="#00B9F4"/>
<rect x="372.062" y="717.264" width="51.4723" height="51.4723" fill="#00B9F4"/>
<rect x="372.062" y="767.264" width="51.4723" height="51.4723" fill="#00B9F4"/>
<rect x="372.062" y="617.264" width="51.4723" height="51.4723" fill="#00B9F4"/>
<rect x="372.062" y="667.264" width="51.4723" height="51.4723" fill="#00B9F4"/>
<rect x="372.062" y="717.264" width="51.4723" height="51.4723" fill="#00B9F4"/>
<rect x="372.062" y="767.264" width="51.4723" height="51.4723" fill="#00B9F4"/>
<rect x="319.074" y="928.264" width="51.4723" height="51.4723" fill="#00B9F4"/>
<rect x="319.074" y="928.264" width="51.4723" height="51.4723" fill="#00B9F4"/>
<rect x="372.062" y="928.264" width="51.4723" height="51.4723" fill="#00B9F4"/>
<rect x="372.062" y="928.264" width="51.4723" height="51.4723" fill="#00B9F4"/>
<rect x="319.074" y="917.264" width="51.4723" height="51.4723" fill="#00B9F4"/>
<rect x="319.074" y="917.264" width="51.4723" height="51.4723" fill="#00B9F4"/>
<rect x="372.062" y="917.264" width="51.4723" height="51.4723" fill="#00B9F4"/>
<rect x="372.062" y="917.264" width="51.4723" height="51.4723" fill="#00B9F4"/>
<rect x="372.062" y="867.264" width="51.4723" height="51.4723" fill="#00B9F4"/>
<rect x="372.062" y="867.264" width="51.4723" height="51.4723" fill="#00B9F4"/>
<rect x="425.05" y="867.264" width="51.4723" height="51.4723" fill="#00B9F4"/>
<rect x="425.05" y="867.264" width="51.4723" height="51.4723" fill="#00B9F4"/>
<rect x="266.086" y="867.264" width="51.4723" height="51.4723" fill="#00B9F4"/>
<rect x="266.086" y="867.264" width="51.4723" height="51.4723" fill="#00B9F4"/>
<rect x="319.074" y="867.264" width="51.4723" height="51.4723" fill="#00B9F4"/>
<rect x="319.074" y="867.264" width="51.4723" height="51.4723" fill="#00B9F4"/>
<rect x="319.074" y="817.264" width="51.4723" height="51.4723" fill="#00B9F4"/>
<rect x="319.074" y="817.264" width="51.4723" height="51.4723" fill="#00B9F4"/>
<rect x="372.062" y="817.264" width="51.4723" height="51.4723" fill="#00B9F4"/>
<rect x="372.062" y="817.264" width="51.4723" height="51.4723" fill="#00B9F4"/>
<rect x="213.098" y="817.264" width="51.4723" height="51.4723" fill="#00B9F4"/>
<rect x="213.098" y="817.264" width="51.4723" height="51.4723" fill="#00B9F4"/>
<rect x="266.086" y="817.264" width="51.4723" height="51.4723" fill="#00B9F4"/>
<rect x="266.086" y="817.264" width="51.4723" height="51.4723" fill="#00B9F4"/>
<rect x="319.074" y="817.264" width="51.4723" height="51.4723" fill="#00B9F4"/>
<rect x="319.074" y="817.264" width="51.4723" height="51.4723" fill="#00B9F4"/>
<rect x="372.062" y="817.264" width="51.4723" height="51.4723" fill="#00B9F4"/>
<rect x="372.062" y="817.264" width="51.4723" height="51.4723" fill="#00B9F4"/>
<rect x="213.098" y="617.264" width="51.4723" height="51.4723" fill="#00B9F4"/>
<rect x="213.098" y="667.264" width="51.4723" height="51.4723" fill="#00B9F4"/>
<rect x="213.098" y="717.264" width="51.4723" height="51.4723" fill="#00B9F4"/>
<rect x="213.098" y="767.264" width="51.4723" height="51.4723" fill="#00B9F4"/>
<rect x="213.098" y="617.264" width="51.4723" height="51.4723" fill="#00B9F4"/>
<rect x="213.098" y="667.264" width="51.4723" height="51.4723" fill="#00B9F4"/>
<rect x="213.098" y="717.264" width="51.4723" height="51.4723" fill="#00B9F4"/>
<rect x="213.098" y="767.264" width="51.4723" height="51.4723" fill="#00B9F4"/>
<rect x="266.086" y="617.264" width="51.4723" height="51.4723" fill="#00B9F4"/>
<rect x="266.086" y="667.264" width="51.4723" height="51.4723" fill="#00B9F4"/>
<rect x="266.086" y="717.264" width="51.4723" height="51.4723" fill="#00B9F4"/>
<rect x="266.086" y="767.264" width="51.4723" height="51.4723" fill="#00B9F4"/>
<rect x="266.086" y="617.264" width="51.4723" height="51.4723" fill="#00B9F4"/>
<rect x="266.086" y="667.264" width="51.4723" height="51.4723" fill="#00B9F4"/>
<rect x="266.086" y="717.264" width="51.4723" height="51.4723" fill="#00B9F4"/>
<rect x="266.086" y="767.264" width="51.4723" height="51.4723" fill="#00B9F4"/>
<rect x="160.11" y="767.264" width="51.4723" height="51.4723" fill="#00B9F4"/>
<rect x="160.11" y="667.264" width="51.4723" height="51.4723" fill="#00B9F4"/>
<rect x="107.122" y="717.264" width="51.4723" height="51.4723" fill="#00B9F4"/>
<rect x="425.05" y="517.264" width="51.4723" height="51.4723" fill="#00B9F4"/>
<rect x="425.05" y="567.264" width="51.4723" height="51.4723" fill="#00B9F4"/>
<rect x="425.05" y="617.264" width="51.4723" height="51.4723" fill="#00B9F4"/>
<rect x="425.05" y="667.264" width="51.4723" height="51.4723" fill="#00B9F4"/>
<rect x="425.05" y="517.264" width="51.4723" height="51.4723" fill="#00B9F4"/>
<rect x="425.05" y="567.264" width="51.4723" height="51.4723" fill="#00B9F4"/>
<rect x="425.05" y="617.264" width="51.4723" height="51.4723" fill="#00B9F4"/>
<rect x="425.05" y="667.264" width="51.4723" height="51.4723" fill="#00B9F4"/>
<rect x="425.05" y="517.264" width="51.4723" height="51.4723" fill="#00B9F4"/>
<rect x="425.05" y="567.264" width="51.4723" height="51.4723" fill="#00B9F4"/>
<rect x="425.05" y="617.264" width="51.4723" height="51.4723" fill="#00B9F4"/>
<rect x="425.05" y="667.264" width="51.4723" height="51.4723" fill="#00B9F4"/>
<rect x="425.05" y="517.264" width="51.4723" height="51.4723" fill="#00B9F4"/>
<rect x="425.05" y="567.264" width="51.4723" height="51.4723" fill="#00B9F4"/>
<rect x="425.05" y="617.264" width="51.4723" height="51.4723" fill="#00B9F4"/>
<rect x="425.05" y="667.264" width="51.4723" height="51.4723" fill="#00B9F4"/>
<rect x="478.038" y="617.264" width="51.4723" height="51.4723" fill="#00B9F4"/>
<rect x="478.038" y="667.264" width="51.4723" height="51.4723" fill="#00B9F4"/>
<rect x="478.038" y="717.264" width="51.4723" height="51.4723" fill="#00B9F4"/>
<rect x="478.038" y="617.264" width="51.4723" height="51.4723" fill="#00B9F4"/>
<rect x="478.038" y="667.264" width="51.4723" height="51.4723" fill="#00B9F4"/>
<rect x="478.038" y="717.264" width="51.4723" height="51.4723" fill="#00B9F4"/>
<rect x="478.038" y="617.264" width="51.4723" height="51.4723" fill="#00B9F4"/>
<rect x="478.038" y="667.264" width="51.4723" height="51.4723" fill="#00B9F4"/>
<rect x="478.038" y="717.264" width="51.4723" height="51.4723" fill="#00B9F4"/>
<rect x="478.038" y="617.264" width="51.4723" height="51.4723" fill="#00B9F4"/>
<rect x="478.038" y="667.264" width="51.4723" height="51.4723" fill="#00B9F4"/>
<rect x="478.038" y="717.264" width="51.4723" height="51.4723" fill="#00B9F4"/>
<rect x="425.05" y="717.264" width="51.4723" height="51.4723" fill="#00B9F4"/>
<rect x="425.05" y="767.264" width="51.4723" height="51.4723" fill="#00B9F4"/>
<rect x="425.05" y="817.264" width="51.4723" height="51.4723" fill="#00B9F4"/>
<rect x="425.05" y="717.264" width="51.4723" height="51.4723" fill="#00B9F4"/>
<rect x="425.05" y="767.264" width="51.4723" height="51.4723" fill="#00B9F4"/>
<rect x="425.05" y="817.264" width="51.4723" height="51.4723" fill="#00B9F4"/>
<rect x="425.05" y="717.264" width="51.4723" height="51.4723" fill="#00B9F4"/>
<rect x="425.05" y="767.264" width="51.4723" height="51.4723" fill="#00B9F4"/>
<rect x="425.05" y="817.264" width="51.4723" height="51.4723" fill="#00B9F4"/>
<rect x="425.05" y="717.264" width="51.4723" height="51.4723" fill="#00B9F4"/>
<rect x="425.05" y="767.264" width="51.4723" height="51.4723" fill="#00B9F4"/>
<rect x="478.038" y="767.264" width="51.4723" height="51.4723" fill="#00B9F4"/>
<rect x="478.038" y="767.264" width="51.4723" height="51.4723" fill="#00B9F4"/>
<rect x="531.025" y="767.264" width="51.4723" height="51.4723" fill="#00B9F4"/>
<rect x="531.025" y="767.264" width="51.4723" height="51.4723" fill="#00B9F4"/>
<rect x="531.025" y="767.264" width="51.4723" height="51.4723" fill="#00B9F4"/>
<rect x="531.025" y="767.264" width="51.4723" height="51.4723" fill="#00B9F4"/>
<rect x="425.05" y="817.264" width="51.4723" height="51.4723" fill="#00B9F4"/>
<rect x="478.038" y="817.264" width="51.4723" height="51.4723" fill="#00B9F4"/>
<rect x="478.038" y="867.264" width="51.4723" height="51.4723" fill="#00B9F4"/>
<rect x="478.038" y="917.264" width="51.4723" height="51.4723" fill="#00B9F4"/>
<rect x="478.038" y="817.264" width="51.4723" height="51.4723" fill="#00B9F4"/>
<rect x="478.038" y="867.264" width="51.4723" height="51.4723" fill="#00B9F4"/>
<rect x="478.038" y="917.264" width="51.4723" height="51.4723" fill="#00B9F4"/>
<rect x="478.038" y="817.264" width="51.4723" height="51.4723" fill="#00B9F4"/>
<rect x="478.038" y="867.264" width="51.4723" height="51.4723" fill="#00B9F4"/>
<rect x="478.038" y="917.264" width="51.4723" height="51.4723" fill="#00B9F4"/>
<rect x="478.038" y="817.264" width="51.4723" height="51.4723" fill="#00B9F4"/>
<rect x="478.038" y="867.264" width="51.4723" height="51.4723" fill="#00B9F4"/>
<rect x="478.038" y="917.264" width="51.4723" height="51.4723" fill="#00B9F4"/>
<rect x="266.086" y="317.264" width="51.4723" height="51.4723" fill="#00B9F4"/>
<rect x="266.086" y="367.264" width="51.4723" height="51.4723" fill="#00B9F4"/>
<rect x="266.086" y="417.264" width="51.4723" height="51.4723" fill="#00B9F4"/>
<rect x="266.086" y="217.264" width="51.4723" height="51.4723" fill="#019BE6"/>
<rect x="425.05" y="317.264" width="51.4723" height="51.4723" fill="#019BE6"/>
<rect x="266.086" y="267.264" width="51.4723" height="51.4723" fill="#009EE7"/>
<rect x="213.098" y="417.264" width="51.4723" height="51.4723" fill="#0295E3"/>
<rect x="213.098" y="467.264" width="51.4723" height="51.4723" fill="#0295E3"/>
<rect x="266.086" y="467.264" width="51.4723" height="51.4723" fill="#0295E3"/>
<rect x="213.098" y="517.264" width="51.4723" height="51.4723" fill="#0295E3"/>
<rect x="213.098" y="567.264" width="51.4723" height="51.4723" fill="#0295E3"/>
<rect x="160.11" y="617.264" width="51.4723" height="51.4723" fill="#0295E3"/>
<rect x="107.122" y="567.264" width="51.4723" height="51.4723" fill="#01A3EB"/>
<rect x="55.1941" y="567.264" width="51.4723" height="51.4723" fill="#01A3EB"/>
<rect x="54.1345" y="617.264" width="51.4723" height="51.4723" fill="#0289D9"/>
<rect x="0.388672" y="667.264" width="51.4723" height="51.4723" fill="#0289D9"/>
<rect x="1.14648" y="717.264" width="51.4723" height="51.4723" fill="#0289D9"/>
<rect x="1.14648" y="767.264" width="51.4723" height="51.4723" fill="#0289D9"/>
<rect x="54.1345" y="767.264" width="51.4723" height="51.4723" fill="#0289D9"/>
<rect x="1.14648" y="817.264" width="51.4723" height="51.4723" fill="#0289D9"/>
<rect x="1.14648" y="867.264" width="51.4723" height="51.4723" fill="#0289D9"/>
<rect x="1.14648" y="917.264" width="51.4723" height="51.4723" fill="#00CBFB"/>
<rect x="55.1941" y="967.264" width="51.4723" height="51.4723" fill="#00CBFB"/>
<rect x="108.182" y="1017.26" width="51.4723" height="51.4723" fill="#00CBFB"/>
<rect x="54.1345" y="867.264" width="51.4723" height="51.4723" fill="#0289D9"/>
<rect x="54.1345" y="917.264" width="51.4723" height="51.4723" fill="#0289D9"/>
<rect x="160.11" y="467.264" width="51.4723" height="51.4723" fill="#01A3EB"/>
<rect x="160.11" y="517.264" width="51.4723" height="51.4723" fill="#01BDF6"/>
<rect x="54.1345" y="717.264" width="51.4723" height="51.4723" fill="#01BDF6"/>
<rect x="54.1345" y="817.264" width="51.4723" height="51.4723" fill="#01BDF6"/>
<rect x="160.11" y="567.264" width="51.4723" height="51.4723" fill="#02CFFB"/>
<rect x="213.098" y="317.264" width="51.4723" height="51.4723" fill="#0295E2"/>
<rect x="213.098" y="367.264" width="51.4723" height="51.4723" fill="#00A8ED"/>
<rect x="425.05" y="367.264" width="51.4723" height="51.4723" fill="#00A8ED"/>
<rect x="478.038" y="417.264" width="51.4723" height="51.4723" fill="#019BE6"/>
<rect x="161.17" y="417.264" width="51.4723" height="51.4723" fill="#019BE6"/>
<rect x="478.038" y="467.264" width="51.4723" height="51.4723" fill="#00A8ED"/>
<rect x="531.025" y="467.264" width="51.4723" height="51.4723" fill="#0098E2"/>
<rect x="531.025" y="517.264" width="51.4723" height="51.4723" fill="#00B1F2"/>
<rect x="107.122" y="467.264" width="51.4723" height="51.4723" fill="#0098E2"/>
<rect x="107.122" y="517.264" width="51.4723" height="51.4723" fill="#00B1F2"/>
<rect x="531.025" y="567.264" width="51.4723" height="51.4723" fill="#00B1F2"/>
<rect x="584.013" y="567.264" width="51.4723" height="51.4723" fill="#0098E2"/>
<rect x="637.001" y="667.264" width="51.4723" height="51.4723" fill="#0098E2"/>
<rect x="637.001" y="717.264" width="51.4723" height="51.4723" fill="#0188D7"/>
<rect x="584.013" y="917.264" width="51.4723" height="51.4723" fill="#0188D7"/>
<rect x="531.025" y="967.264" width="51.4723" height="51.4723" fill="#0188D7"/>
<rect x="478.038" y="1017.26" width="51.4723" height="51.4723" fill="#0188D7"/>
<rect x="213.098" y="967.264" width="51.4723" height="51.4723" fill="#0188D7"/>
<rect x="425.05" y="1067.26" width="51.4723" height="51.4723" fill="#0188D7"/>
<rect x="372.062" y="1067.26" width="51.4723" height="51.4723" fill="#0188D7"/>
<rect x="372.062" y="1017.26" width="51.4723" height="51.4723" fill="#0188D7"/>
<rect x="372.062" y="1017.26" width="51.4723" height="51.4723" fill="#0188D7"/>
<rect x="319.074" y="967.264" width="51.4723" height="51.4723" fill="#0199E4"/>
<rect x="372.062" y="967.264" width="51.4723" height="51.4723" fill="#0199E4"/>
<rect x="425.05" y="1017.26" width="51.4723" height="51.4723" fill="#0199E4"/>
<rect x="425.05" y="967.264" width="51.4723" height="51.4723" fill="#0199E4"/>
<rect x="425.05" y="917.264" width="51.4723" height="51.4723" fill="#0199E4"/>
<rect x="213.098" y="867.264" width="51.4723" height="51.4723" fill="#0199E4"/>
<rect x="213.098" y="917.264" width="51.4723" height="51.4723" fill="#0199E4"/>
<rect x="266.086" y="917.264" width="51.4723" height="51.4723" fill="#0199E4"/>
<rect x="266.086" y="967.264" width="51.4723" height="51.4723" fill="#0199E4"/>
<rect x="478.038" y="967.264" width="51.4723" height="51.4723" fill="#0199E4"/>
<rect x="319.074" y="1017.26" width="51.4723" height="51.4723" fill="#00A3E9"/>
<rect x="107.122" y="817.264" width="51.4723" height="51.4723" fill="#0188D9"/>
<rect x="160.11" y="817.264" width="51.4723" height="51.4723" fill="#0188D9"/>
<rect x="107.122" y="767.264" width="51.4723" height="51.4723" fill="#0188D9"/>
<rect x="160.11" y="717.264" width="51.4723" height="51.4723" fill="#009AE5"/>
<rect x="107.122" y="667.264" width="51.4723" height="51.4723" fill="#009AE5"/>
<rect x="372.062" y="1116.53" width="51.4723" height="51.4723" fill="#009AE5"/>
<rect x="478.038" y="1067.26" width="51.4723" height="51.4723" fill="#009AE5"/>
<rect x="531.025" y="1017.26" width="51.4723" height="51.4723" fill="#009AE5"/>
<rect x="319.074" y="1116.53" width="51.4723" height="51.4723" fill="#009AE5"/>
<rect x="266.086" y="1116.53" width="51.4723" height="51.4723" fill="#009AE5"/>
<rect x="213.098" y="1067.26" width="51.4723" height="51.4723" fill="#0196E2"/>
<rect x="213.098" y="1067.26" width="51.4723" height="51.4723" fill="#0781BF"/>
<rect x="160.11" y="917.264" width="51.4723" height="51.4723" fill="#0781BF"/>
<rect x="160.11" y="967.264" width="51.4723" height="51.4723" fill="#0781BF"/>
<rect x="213.098" y="1017.26" width="51.4723" height="51.4723" fill="#0781BF"/>
<rect x="160.11" y="1017.26" width="51.4723" height="51.4723" fill="#0781BF"/>
<rect x="107.122" y="917.264" width="51.4723" height="51.4723" fill="#0781BF"/>
<rect x="107.122" y="867.264" width="51.4723" height="51.4723" fill="#0781BF"/>
<rect x="160.11" y="1067.26" width="51.4723" height="51.4723" fill="#0389D8"/>
<rect x="266.086" y="1017.26" width="51.4723" height="51.4723" fill="#0389D8"/>
<rect x="107.122" y="967.264" width="51.4723" height="51.4723" fill="#0389D8"/>
<rect x="266.086" y="1067.26" width="51.4723" height="51.4723" fill="#0781BF"/>
<rect x="266.086" y="567.264" width="51.4723" height="51.4723" fill="#7BFBFF"/>
<rect x="266.086" y="517.264" width="51.4723" height="51.4723" fill="#7BFBFF"/>
<rect x="107.122" y="617.264" width="51.4723" height="51.4723" fill="#028ADA"/>
<rect x="160.11" y="867.264" width="51.4723" height="51.4723" fill="#009DE8"/>
<rect x="319.074" y="1067.26" width="51.4723" height="51.4723" fill="#0188D7"/>
<rect x="637.001" y="767.264" width="51.4723" height="51.4723" fill="#0098E2"/>
<rect x="637.001" y="867.264" width="51.4723" height="51.4723" fill="#0098E2"/>
<rect x="637.759" y="867.264" width="51.4723" height="51.4723" fill="#0098E2"/>
<rect x="531.025" y="917.264" width="51.4723" height="51.4723" fill="#0098E2"/>
<rect x="637.001" y="817.264" width="51.4723" height="51.4723" fill="#0188D7"/>
<rect x="584.013" y="617.264" width="51.4723" height="51.4723" fill="#00B1F2"/>
<rect x="584.013" y="667.264" width="51.4723" height="51.4723" fill="#00B1F2"/>
<rect x="584.013" y="717.264" width="51.4723" height="51.4723" fill="#01CAF9"/>
<rect x="531.025" y="867.264" width="51.4723" height="51.4723" fill="#01CAF9"/>
<rect x="584.013" y="817.264" width="51.4723" height="51.4723" fill="#01CAF9"/>
<rect x="584.013" y="867.264" width="51.4723" height="51.4723" fill="#00A3EA"/>
<rect x="584.013" y="967.264" width="51.4723" height="51.4723" fill="#00A3EA"/>
<rect x="584.013" y="767.264" width="51.4723" height="51.4723" fill="#08DAFD"/>
<rect x="54.1345" y="667.264" width="51.4723" height="51.4723" fill="#00A2EB"/>
<path d="M978.139 932V470H1261.14V561H1341.14V470H1534.14V561H1624.14V932H1524.14V570H1351.14V932H1251.14V570H1079.14V932H978.139ZM1694.74 932V470H1795.74V932H1694.74ZM1694.74 390V289H1795.74V390H1694.74ZM1856.65 932V832H1947.65V741H2037.65V650H2129.65V570H1856.65V470H2321.65V570H2229.65V660H2139.65V751H2047.65V832H2321.65V932H1856.65ZM2453.32 932V842H2362.32V470H2463.32V832H2725.32V470H2827.32V842H2735.32V932H2453.32ZM3048.45 1108V561H3139.45V470H3421.45V561H3513.45V842H3421.45V932H3149.45V1108H3048.45ZM3149.45 832H3411.45V570H3149.45V832ZM3675.39 932V842H3584.39V561H3675.39V470H3957.39V561H4049.39V832H4140.39V932H4039.39V842H3957.39V932H3675.39ZM3685.39 832H3947.39V570H3685.39V832ZM4231.83 1113V1023H4140.83V923H4241.83V1013H4504.83V842H4231.83V751H4140.83V470H4241.83V741H4504.83V470H4605.83V1023H4514.83V1113H4231.83Z" fill="white"/>
</svg>
